PathFileType	4	(X/Y/Z)	C:/Users/beibeiliu/ov580/test_trc/capture2\sequence.28_training_dense_right.trc
DataRate	CameraRate	NumFrames	NumMarkers	Units	OrigDataRate	OrigDataStartFrame	OrigNumFrames
120	120	24	19	mm	120	351	400
Frame#	Time	ThumbCMC			ThumbMCP			ThumbIP			ThumbTip			IndexMCP			IndexPIP			IndexTip			MiddleMCP			MiddlePIP			MiddleTip			RingMCP			RingPIP			RingTip			PinkyMCP			PinkyPIP			PinkyTip			BackHand1			BackHand2			BackHand3	
		X0	Y0	Z0	X1	Y1	Z1	X2	Y2	Z2	X3	Y3	Z3	X4	Y4	Z4	X5	Y5	Z5	X6	Y6	Z6	X7	Y7	Z7	X8	Y8	Z8	X9	Y9	Z9	X10	Y10	Z10	X11	Y11	Z11	X12	Y12	Z12	X13	Y13	Z13	X14	Y14	Z14	X15	Y15	Z15	X16	Y16	Z16	X17	Y17	Z17	X18	Y18	Z18	
350	2.91667	81.7763	-27.9868	51.0091	73.8671	-37.501	20.4153	75.6683	-34.7037	-6.60037	89.7035	-27.9738	-29.4441	79.4802	11.0599	-8.03558	75.7676	-9.81777	-29.5312	84.8126	-31.6205	-2.74564	99.721	3.02635	-17.9271	95.6477	-25.7186	-28.0055	104.811	-41.2779	5.15193	117.981	-2.45135	-17.2313	114.145	-35.2835	-21.2387	110.484	-36.0234	11.3354	134.534	-11.4829	-13.469	130.025	-38.9595	-13.4854	122.746	-38.8128	19.9894	134.861	9.16268	35.6586	141.754	-4.5296	65.8142	106.921	5.14559	56.3365	
351	2.925	83.7848	-27.8757	52.0549	75.5887	-39.2488	22.5062	71.9557	-37.9647	-6.64849	92.8347	-29.6824	-26.4828	83.494	10.909	-7.0799	79.6912	-15.2649	-27.2051	84.0781	-33.4761	-4.00516	102.54	5.15666	-15.1451	95.4732	-24.3339	-27.2671	100.908	-37.3606	7.76056	119.311	-2.68212	-17.3603	112.898	-34.0544	-20.1309	115.496	-37.9291	10.9914	136.361	-10.4474	-10.2631	126.245	-38.5028	-11.1106	123.474	-37.594	22.9714	132.716	8.15917	34.4876	140.281	-3.41957	66.7876	106.949	6.2283	54.1089	
352	2.93333	81.1603	-25.927	51.9494	72.7094	-39.7613	23.8242	73.4048	-36.417	-7.08746	88.3783	-33.2698	-23.3564	80.682	10.6314	-6.03785	78.8118	-12.7956	-27.4594	85.4125	-34.5088	-2.19595	100.734	2.59211	-18.0868	94.5358	-25.7044	-24.8473	97.7541	-35.341	12.4252	120.549	-3.2498	-15.9808	112.678	-32.0226	-21.7389	110.049	-35.6878	14.7995	137.74	-11.2276	-10.002	124.518	-38.4576	-11.3381	120.36	-36.7045	21.5624	138.798	7.01718	37.2983	142.433	-6.47292	66.3941	104.603	5.99751	55.3452	
353	2.94167	81.6023	-27.1034	56.8381	71.6333	-35.9195	22.3988	73.0286	-35.2874	-4.93006	88.1735	-31.9871	-25.4345	84.454	9.97584	-6.87617	75.7217	-14.817	-24.9136	87.2202	-32.4082	3.21438	102.781	3.48903	-15.0661	99.2991	-25.5801	-26.6433	102.963	-35.7483	11.5113	121.111	-4.78872	-18.4037	110.166	-34.9152	-17.2484	111.335	-37.0007	12.6867	137.759	-13.1847	-10.7681	124.275	-37.6869	-12.0311	120.153	-36.2649	21.1874	137.648	5.91551	39.1338	139.353	-2.8468	63.9157	109.827	3.59377	59.5186	
354	2.95	80.0896	-25.2295	57.0461	68.8117	-36.6703	27.9877	68.3985	-35.2411	-0.284977	80.6528	-32.4859	-23.5943	80.3683	8.98275	-8.83387	77.7641	-18.3887	-21.2731	85.5039	-32.0355	5.78922	99.923	2.87118	-18.0353	97.4772	-26.1199	-25.3704	99.9742	-36.162	13.7724	119.769	-4.10262	-15.4381	112.76	-35.8608	-17.9241	111.999	-36.5069	16.6195	134.953	-14.4691	-13.0359	125.632	-40.7969	-10.3173	121.885	-36.462	21.8297	139.411	5.29354	36.9662	138.446	-4.58765	64.1447	111.038	4.41507	59.3106	
355	2.95833	81.2135	-25.2484	59.4199	66.6513	-33.577	26.1745	62.2944	-33.6483	3.91696	77.0689	-30.0306	-22.3788	83.7753	6.95762	-8.39434	75.2429	-22.6449	-19.0928	87.375	-30.7798	11.5517	103.942	3.23403	-14.765	97.5698	-27.0742	-25.3308	98.3302	-37.9094	11.6414	119.257	-6.87207	-18.3397	108.988	-35.6524	-16.4969	111.589	-35.5822	18.2225	133.913	-14.7927	-12.7402	126.414	-40.0237	-9.90271	122.164	-38.3077	22.4078	137.782	7.50897	34.5918	141.046	-4.49496	64.2396	109.077	5.35992	57.3969	
356	2.96667	80.0706	-24.4187	58.1253	66.5486	-32.2929	28.8232	61.7	-31.1674	4.70758	66.9216	-28.3072	-20.2376	81.7843	5.85871	-9.05282	78.9239	-19.8901	-20.9738	86.7199	-33.7863	8.54003	101.911	1.29451	-18.4606	96.377	-29.4043	-22.1029	99.6899	-36.5135	13.8217	118.751	-5.88051	-16.8191	112.524	-36.2486	-15.2287	114.042	-38.2917	16.0698	139.048	-14.4483	-10.4315	126.377	-40.0984	-7.58531	123.563	-33.7869	26.5955	138.673	8.00046	37.9444	143.492	-3.47962	65.0877	104.985	5.19285	57.0286	
357	2.975	80.6581	-23.5066	55.7724	66.5034	-32.7135	33.6682	57.1089	-27.5047	3.69209	68.6614	-24.1334	-19.3504	79.769	5.12765	-7.30059	76.6069	-24.2349	-18.7037	87.1744	-36.3468	7.07104	99.519	1.86239	-13.3062	98.3381	-30.0922	-21.5206	104.016	-37.985	14.1258	123.674	-5.87125	-15.1225	112.887	-36.0389	-14.1656	113.536	-35.5592	19.6146	136.556	-11.6819	-8.22083	125.788	-38.7213	-6.69046	122.367	-37.2776	25.0341	136.183	10.8964	36.6703	139.611	-3.91204	68.0397	109.785	6.95878	57.2379	
358	2.98333	79.9086	-23.8944	58.4008	63.9187	-30.861	32.9811	56.5387	-27.0339	6.85217	60.4329	-23.0144	-17.5109	79.2788	6.02466	-6.03242	80.0786	-20.1782	-22.3334	86.7086	-35.4155	8.83073	99.5162	2.95561	-12.5388	99.411	-28.4639	-22.5864	99.7409	-37.744	14.0195	118.35	-4.37858	-13.3035	113.16	-36.777	-12.3171	113.889	-34.5007	21.2083	139.782	-12.4887	-9.68847	125.986	-40.6559	-4.10641	123.21	-33.7119	28.0708	137.036	11.541	36.0904	141.547	-4.98517	66.6873	106.856	4.9231	59.796	
359	2.99167	82.7206	-25.0432	61.519	68.8099	-28.9626	33.2534	56.1072	-27.3873	9.20262	59.7377	-22.3172	-17.9179	80.2967	7.17254	-5.01683	76.1539	-23.8434	-18.988	89.4667	-36.0048	7.65006	103.685	1.38572	-13.2872	99.4947	-28.6053	-21.1568	99.2024	-37.2264	16.8518	120.777	-8.38616	-16.3297	113.37	-38.5459	-10.7677	111.962	-35.4755	21.7915	134.592	-16.1502	-9.92785	124.808	-39.6609	-3.77304	126.769	-37.3772	30.4763	137.386	7.18909	38.9965	142.595	-2.24686	65.9056	109.449	5.91533	59.343	
360	3	84.2624	-22.3973	60.3622	70.5997	-27.7069	32.6972	57.4457	-25.246	6.44488	63.6613	-22.7119	-18.7013	80.4257	6.35624	-8.71688	79.2544	-20.6857	-18.7509	85.4216	-34.9431	9.30366	103.61	-0.848335	-15.4303	97.4329	-31.1236	-17.9243	100.456	-35.8744	18.982	120.62	-11.6921	-18.0368	110.995	-38.1848	-8.57811	113.734	-36.0454	22.9967	135.734	-18.3049	-9.58959	125.723	-43.3045	2.31931	126.293	-33.3647	32.7877	141.946	8.64528	36.5449	141.577	-3.39252	65.1932	113.077	7.33286	55.4243	
361	3.00833	84.1837	-19.6516	57.8441	67.5688	-27.586	30.5702	60.446	-24.6925	3.61017	69.994	-23.978	-20.2578	82.6134	6.27713	-7.42516	79.5766	-22.8438	-15.6035	86.3832	-30.781	17.1294	102.329	1.52914	-13.3692	95.3035	-28.4138	-18.3182	101.605	-34.4641	20.9328	122.416	-10.7061	-14.411	111.292	-40.7944	-4.66779	111.242	-31.1393	26.9916	136.583	-20.156	-8.65909	120.775	-41.4533	5.92803	127.197	-33.7954	35.3794	144.352	7.75921	37.9438	147.114	-5.49378	64.2972	110.658	8.29347	55.473	
362	3.01667	87.7525	-19.4682	58.8248	67.2866	-28.2578	30.3388	59.7222	-28.4132	5.09592	72.9334	-26.5749	-19.8629	82.5943	7.56685	-5.43704	80.2461	-23.0966	-14.1378	88.5402	-29.9735	16.2018	106.014	-1.67373	-15.1523	98.0854	-31.6658	-16.7658	103.913	-35.2565	20.0898	117.08	-12.3773	-14.9098	110.335	-38.2607	-6.7726	115.972	-32.991	28.3462	135.858	-22.3279	-8.75161	124.421	-44.3078	6.40159	124.298	-29.4376	36.044	140.632	8.90005	36.5209	143.019	-4.43243	63.7852	116.443	8.32463	59.3289	
363	3.025	82.3383	-19.9123	59.224	71.8631	-28.9247	31.3112	64.2475	-27.9992	-0.307449	80.3531	-26.3569	-21.9727	80.3021	5.74318	-7.43627	76.7882	-23.2428	-13.8163	93.6214	-27.3998	17.9545	104.147	-2.01407	-16.6364	94.116	-31.0784	-16.3276	101.602	-34.5775	19.9957	117.175	-12.3432	-12.6906	110.035	-40.0595	-2.68627	115.397	-30.3581	30.713	136.118	-23.1328	-8.4982	124.214	-43.5583	8.84649	124.215	-26.8435	37.9152	141.058	8.08662	32.7747	143.807	-1.82085	64.4612	115.885	9.80272	57.7231	
364	3.03333	83.0443	-17.8043	53.9533	72.9448	-29.1792	27.4535	64.0202	-28.542	-2.1482	81.8965	-28.9328	-21.0173	84.1934	5.27459	-8.84716	78.5482	-22.7028	-15.7707	89.1541	-28.3635	18.2907	104.201	-2.91405	-18.3057	97.9028	-33.7224	-12.9637	102.819	-34.5745	21.1565	117.295	-12.4866	-13.857	111.457	-40.4694	-2.25371	113.416	-31.0354	29.3564	135.743	-20.3182	-6.46754	126.629	-44.2929	9.2005	128.748	-26.7899	38.8651	140.594	9.05619	36.6023	142.596	-1.25914	65.3636	113.292	9.72304	56.3305	
365	3.04167	83.7273	-19.2048	56.2733	70.7547	-31.3411	27.2018	65.8941	-30.0951	-1.25745	79.2611	-29.8839	-20.3077	84.7019	5.81919	-6.8725	79.9133	-25.579	-14.0795	90.6187	-29.8034	16.7723	102.824	-2.53186	-17.397	96.4417	-32.6154	-15.7684	105.109	-36.4196	19.514	118.927	-11.5754	-12.341	111.291	-38.3393	-5.83423	117.533	-33.2561	27.5865	139.127	-21.1241	-7.60389	126.946	-43.864	10.1769	128.99	-26.7406	37.7836	141.022	10.7908	33.9358	142.12	-0.632878	67.6684	109.15	8.22881	58.7723	
366	3.05	82.8059	-22.0589	58.401	67.9937	-29.9788	26.2164	61.5888	-28.8774	0.282639	81.6726	-26.0268	-20.5805	81.822	3.92481	-11.0774	82.6542	-25.1496	-18.5459	92.201	-33.9792	12.5071	105.032	-0.554789	-15.4204	96.8732	-32.1144	-17.7305	103.662	-37.9731	17.0578	121.077	-13.3081	-14.6126	117.229	-40.32	-6.34113	114.957	-30.6082	29.1098	137.298	-16.0942	-4.99652	124.843	-41.2256	7.56345	125.19	-27.2939	35.9851	135.214	10.772	34.4499	142.008	-0.909429	64.6576	111.162	8.29043	58.7742	
367	3.05833	84.8387	-21.8325	57.6328	68.4234	-24.0703	31.0798	66.487	-18.5353	1.91968	93.4843	-16.6602	-10.9696	84.3054	5.67957	-9.66571	79.3273	-22.9878	-24.0739	89.8383	-42.3083	-2.34795	103.044	0.0352377	-17.2272	100.363	-29.1198	-23.7674	105.637	-39.5865	15.9925	121.652	-10.232	-14.1195	114.894	-40.6678	-4.79485	114.605	-30.0328	26.2104	139.08	-17.475	-8.61013	127.054	-39.5174	4.58759	125.804	-29.7741	32.9936	135.015	14.544	33.6921	143.368	0.376995	64.2663	105.229	7.26278	54.5391	
368	3.06667	84.4062	-22.4582	58.8201	74.2281	-20.411	28.1961	75.4037	-13.4223	1.81506	106.907	-12.6753	-9.05945	78.867	7.59914	-8.89696	78.2761	-16.3852	-28.3503	85.5117	-43.4956	-8.78892	102.382	4.60258	-15.3425	101.408	-27.4397	-26.6523	103.271	-41.7933	8.43359	119.467	-6.67443	-13.9758	115.959	-38.8933	-7.00017	116.036	-30.262	24.5436	138.703	-13.5612	-8.09377	128.086	-39.8092	1.17158	128.16	-31.9305	34.6808	135.093	13.4055	35.6542	140.308	1.73736	66.2664	110.526	7.1747	58.5059	
369	3.075	84.4102	-21.2453	56.5123	74.994	-21.6752	29.6388	83.8237	-10.5641	-0.763157	111.091	-11.1681	-8.80389	84.0025	8.98893	-13.4097	80.6321	-15.2001	-28.711	88.547	-42.5902	-9.04327	104.766	5.74204	-17.7312	99.6405	-25.9833	-27.5631	101.592	-41.7205	4.14577	120.695	-8.56104	-18.633	114.503	-34.8683	-14.5497	114.054	-33.4405	18.8581	136.553	-13.004	-7.37712	127.78	-40.538	-0.808506	127.03	-28.7577	33.4423	136.669	12.8551	37.7504	140.603	1.17	61.9194	111.249	9.02554	56.697	
370	3.08333	84.4073	-18.9735	54.2104	78.201	-22.7838	25.2964	82.7814	-13.5152	-5.64358	109.617	-11.4725	-10.8403	87.4844	11.6377	-11.826	81.4722	-11.4539	-29.5791	84.5468	-39.7353	-12.0094	106.481	5.66827	-19.677	102.021	-24.5599	-28.2369	105.417	-38.912	5.76704	124.02	-4.5592	-16.8896	115.754	-36.0529	-13.3204	117.551	-33.1885	20.0431	137.484	-14.9786	-11.4637	125.148	-38.8819	-1.72632	126.868	-32.1739	29.7067	138.537	11.8942	34.4458	143.015	0.551107	62.1822	111.067	7.74471	55.9417	
371	3.09167	89.8267	-22.0266	52.4017	81.1337	-31.5451	18.7735	81.4991	-30.7583	-8.53776	100.784	-25.4101	-26.7082	84.1822	15.7826	-11.8802	83.335	-10.156	-28.6863	86.7912	-30.4644	-6.61028	107.528	7.21877	-18.3549	98.4457	-24.8588	-24.4749	104.695	-31.3265	11.2317	124.911	-3.23321	-15.9066	117.432	-33.6991	-16.4821	116.17	-33.8422	17.1573	137.62	-14.0111	-10.7476	127.097	-38.6636	-3.65086	122.628	-31.2613	28.4619	140.993	13.5453	33.6687	145.31	-0.380616	65.3061	114.056	10.8672	53.4608	
372	3.1	86.1347	-24.3585	52.1329	82.3898	-33.3122	18.6494	81.3321	-32.0811	-10.6358	100.928	-26.3096	-29.3724	89.2122	17.0009	-13.5709	80.6869	-6.63015	-29.373	88.5827	-25.2704	-3.39849	108.432	7.168	-20.6545	101.271	-20.9621	-29.0993	105.336	-33.9957	7.11001	127.8	-2.2918	-17.6407	114.41	-33.145	-17.18	119.889	-36.1544	13.0758	141.556	-14.1637	-12.02	132.287	-41.0314	-6.48005	127.722	-32.5761	27.1079	140.211	12.1094	35.6371	143.777	-1.50838	63.6242	109.949	11.6582	54.4197	
373	3.10833	89.5731	-22.5038	51.008	81.4477	-27.9635	21.2707	84.6503	-22.3474	-7.21041	109.199	-15.7923	-22.7006	90.425	18.059	-11.6193	82.1468	-3.64703	-31.5752	90.936	-22.0708	-3.54007	105.445	7.94771	-21.5903	105.226	-19.5195	-35.2049	107.607	-42.2348	-5.51087	126.039	-1.82377	-19.1767	117.699	-32.6584	-21.0847	117.594	-35.7364	12.169	141.172	-15.3628	-14.1966	134.993	-41.6359	-7.03136	125.837	-31.9103	24.4052	139.425	11.5251	31.8639	145.216	0.304153	60.6158	111.932	8.05605	52.6606	
